<svg width="16" height="199" viewBox="0 0 16 199" fill="none" xmlns="http://www.w3.org/2000/svg">
<path d="M1.14282 125L2.14149 125.052L2.14149 125.052L1.14282 125ZM12.1582 199L15.1359 187.844L3.98527 190.843L12.1582 199ZM12.1582 54.1048L11.1711 53.9448L11.1711 53.9448L12.1582 54.1048ZM0.144156 124.948C-1.03285 147.713 5.28144 176.438 8.85087 190.554L10.7898 190.064C7.22197 175.954 0.981484 147.488 2.14149 125.052L0.144156 124.948ZM12.1582 1C11.1634 1.10224 11.1634 1.10229 11.1635 1.10245C11.1635 1.10267 11.1635 1.10296 11.1636 1.1034C11.1636 1.10428 11.1638 1.10566 11.164 1.10752C11.1644 1.11125 11.1649 1.11694 11.1657 1.12457C11.1673 1.13983 11.1696 1.16285 11.1726 1.19346C11.1788 1.25469 11.1879 1.34627 11.1996 1.46686C11.2231 1.70805 11.2571 2.06526 11.2993 2.52766C11.3838 3.45248 11.5008 4.79792 11.6309 6.47733C11.8912 9.83656 12.2034 14.5299 12.4116 19.8647C12.8287 30.5529 12.8245 43.746 11.1711 53.9448L13.1453 54.2648C14.8323 43.859 14.8281 30.4997 14.4101 19.7867C14.2007 14.4208 13.8867 9.70131 13.625 6.32287C13.4941 4.63344 13.3762 3.27883 13.2911 2.34581C13.2485 1.87929 13.214 1.51813 13.1902 1.27318C13.1783 1.15071 13.169 1.05728 13.1627 0.994258C13.1595 0.962748 13.1571 0.938838 13.1555 0.922698C13.1547 0.914628 13.1541 0.9085 13.1536 0.904337C13.1534 0.902255 13.1533 0.900664 13.1531 0.899566C13.1531 0.899018 13.153 0.898565 13.153 0.898291C13.153 0.897962 13.153 0.897757 12.1582 1ZM11.1711 53.9448C6.84132 80.6522 1.54362 97.8809 0.144156 124.948L2.14149 125.052C3.53407 98.1173 8.77123 81.2456 13.1453 54.2648L11.1711 53.9448Z" fill="#3D3F54"/>
</svg>
